<svg width="17" height="16" viewBox="0 0 17 16" fill="none" xmlns="http://www.w3.org/2000/svg">
<path d="M4.625 6.875C4.71875 6.96875 4.875 7.03125 4.96875 7.03125C5.09375 7.03125 5.25 6.96875 5.34375 6.875L8.375 3.75C9.25 2.84375 9.1875 1.34375 8.21875 0.5C7.34375 -0.21875 6.09375 -0.09375 5.28125 0.71875L5 1.03125L4.6875 0.71875C3.90625 -0.09375 2.625 -0.21875 1.75 0.5C0.78125 1.34375 0.71875 2.84375 1.59375 3.75L4.625 6.875ZM9.125 10H7.625L7.40625 9.5625C7.28125 9.25 6.9375 9 6.59375 9H4.375C4.03125 9 3.6875 9.25 3.5625 9.5625L3.34375 10H1.84375C1.375 10 1 10.4062 1 10.875V15.1562C1 15.625 1.375 16 1.84375 16H9.125C9.59375 16 10 15.625 10 15.1562V10.875C10 10.4062 9.59375 10 9.125 10ZM5.5 14.625C4.59375 14.625 3.875 13.9062 3.875 13C3.875 12.125 4.59375 11.375 5.5 11.375C6.375 11.375 7.125 12.125 7.125 13C7.125 13.9062 6.375 14.625 5.5 14.625ZM16.5938 11.0312H14.6875L15.4062 9.4375C15.4688 9.21875 15.2812 9.03125 15.0312 9.03125H12.6562C12.4688 9.03125 12.2812 9.15625 12.25 9.3125L11.75 12.6562C11.7188 12.8438 11.875 13.0312 12.125 13.0312H14.0625L13.3125 15.625C13.25 15.8125 13.4375 16 13.6875 16C13.7188 16 13.7188 16 13.7188 16C13.8125 16 13.9688 15.9375 14.0312 15.8438L16.9375 11.5C17.0938 11.2812 16.9062 11.0312 16.5938 11.0312ZM15.9375 0.03125L11.2812 0.75C10.8125 0.8125 10.5 1.21875 10.5 1.71875V5.0625C10.3438 5.03125 10.125 5 10 5C8.875 5 8 5.6875 8 6.5C8 7.34375 8.875 8 10 8C11.0938 8 11.9688 7.34375 12 6.53125V3.125L15.5 2.59375V4.0625C15.3438 4.03125 15.125 4 15 4C13.875 4 13 4.6875 13 5.5C13 6.34375 13.875 7 15 7C16.0938 7 16.9688 6.34375 17 5.53125V1C17 0.40625 16.5 -0.0625 15.9375 0.03125Z" fill="black"/>
</svg>
