<svg width="15" height="15" viewBox="0 0 15 15" fill="none" xmlns="http://www.w3.org/2000/svg">
<path d="M4.17188 6.76562C4.25391 6.84766 4.39062 6.90234 4.47266 6.90234C4.58203 6.90234 4.71875 6.84766 4.80078 6.76562L7.45312 4.03125C8.21875 3.23828 8.16406 1.92578 7.31641 1.1875C6.55078 0.558594 5.45703 0.667969 4.74609 1.37891L4.5 1.65234L4.22656 1.37891C3.54297 0.667969 2.42188 0.558594 1.65625 1.1875C0.808594 1.92578 0.753906 3.23828 1.51953 4.03125L4.17188 6.76562ZM8.10938 9.5H6.79688L6.60547 9.11719C6.49609 8.84375 6.19531 8.625 5.89453 8.625H3.95312C3.65234 8.625 3.35156 8.84375 3.24219 9.11719L3.05078 9.5H1.73828C1.32812 9.5 1 9.85547 1 10.2656V14.0117C1 14.4219 1.32812 14.75 1.73828 14.75H8.10938C8.51953 14.75 8.875 14.4219 8.875 14.0117V10.2656C8.875 9.85547 8.51953 9.5 8.10938 9.5ZM4.9375 13.5469C4.14453 13.5469 3.51562 12.918 3.51562 12.125C3.51562 11.3594 4.14453 10.7031 4.9375 10.7031C5.70312 10.7031 6.35938 11.3594 6.35938 12.125C6.35938 12.918 5.70312 13.5469 4.9375 13.5469ZM14.6445 10.4023H12.9766L13.6055 9.00781C13.6602 8.81641 13.4961 8.65234 13.2773 8.65234H11.1992C11.0352 8.65234 10.8711 8.76172 10.8438 8.89844L10.4062 11.8242C10.3789 11.9883 10.5156 12.1523 10.7344 12.1523H12.4297L11.7734 14.4219C11.7188 14.5859 11.8828 14.75 12.1016 14.75C12.1289 14.75 12.1289 14.75 12.1289 14.75C12.2109 14.75 12.3477 14.6953 12.4023 14.6133L14.9453 10.8125C15.082 10.6211 14.918 10.4023 14.6445 10.4023ZM14.0703 0.777344L9.99609 1.40625C9.58594 1.46094 9.3125 1.81641 9.3125 2.25391V5.17969C9.17578 5.15234 8.98438 5.125 8.875 5.125C7.89062 5.125 7.125 5.72656 7.125 6.4375C7.125 7.17578 7.89062 7.75 8.875 7.75C9.83203 7.75 10.5977 7.17578 10.625 6.46484V3.48438L13.6875 3.01953V4.30469C13.5508 4.27734 13.3594 4.25 13.25 4.25C12.2656 4.25 11.5 4.85156 11.5 5.5625C11.5 6.30078 12.2656 6.875 13.25 6.875C14.207 6.875 14.9727 6.30078 15 5.58984V1.625C15 1.10547 14.5625 0.695312 14.0703 0.777344Z" fill="black"/>
</svg>
