<svg width="13" height="13" viewBox="0 0 13 13" fill="none" xmlns="http://www.w3.org/2000/svg">
<path d="M3.71875 5.65625C3.78906 5.72656 3.90625 5.77344 3.97656 5.77344C4.07031 5.77344 4.1875 5.72656 4.25781 5.65625L6.53125 3.3125C7.1875 2.63281 7.14062 1.50781 6.41406 0.875C5.75781 0.335938 4.82031 0.429688 4.21094 1.03906L4 1.27344L3.76562 1.03906C3.17969 0.429688 2.21875 0.335938 1.5625 0.875C0.835938 1.50781 0.789062 2.63281 1.44531 3.3125L3.71875 5.65625ZM7.09375 8H5.96875L5.80469 7.67188C5.71094 7.4375 5.45312 7.25 5.19531 7.25H3.53125C3.27344 7.25 3.01562 7.4375 2.92188 7.67188L2.75781 8H1.63281C1.28125 8 1 8.30469 1 8.65625V11.8672C1 12.2188 1.28125 12.5 1.63281 12.5H7.09375C7.44531 12.5 7.75 12.2188 7.75 11.8672V8.65625C7.75 8.30469 7.44531 8 7.09375 8ZM4.375 11.4688C3.69531 11.4688 3.15625 10.9297 3.15625 10.25C3.15625 9.59375 3.69531 9.03125 4.375 9.03125C5.03125 9.03125 5.59375 9.59375 5.59375 10.25C5.59375 10.9297 5.03125 11.4688 4.375 11.4688ZM12.6953 8.77344H11.2656L11.8047 7.57812C11.8516 7.41406 11.7109 7.27344 11.5234 7.27344H9.74219C9.60156 7.27344 9.46094 7.36719 9.4375 7.48438L9.0625 9.99219C9.03906 10.1328 9.15625 10.2734 9.34375 10.2734H10.7969L10.2344 12.2188C10.1875 12.3594 10.3281 12.5 10.5156 12.5C10.5391 12.5 10.5391 12.5 10.5391 12.5C10.6094 12.5 10.7266 12.4531 10.7734 12.3828L12.9531 9.125C13.0703 8.96094 12.9297 8.77344 12.6953 8.77344ZM12.2031 0.523438L8.71094 1.0625C8.35938 1.10938 8.125 1.41406 8.125 1.78906V4.29688C8.00781 4.27344 7.84375 4.25 7.75 4.25C6.90625 4.25 6.25 4.76562 6.25 5.375C6.25 6.00781 6.90625 6.5 7.75 6.5C8.57031 6.5 9.22656 6.00781 9.25 5.39844V2.84375L11.875 2.44531V3.54688C11.7578 3.52344 11.5938 3.5 11.5 3.5C10.6562 3.5 10 4.01562 10 4.625C10 5.25781 10.6562 5.75 11.5 5.75C12.3203 5.75 12.9766 5.25781 13 4.64844V1.25C13 0.804688 12.625 0.453125 12.2031 0.523438Z" fill="black"/>
</svg>
